<svg xmlns="http://www.w3.org/2000/svg" viewBox="0 0 64 64">
  <defs>
    <linearGradient id="bg" x1="0%" y1="0%" x2="100%" y2="100%">
      <stop offset="0%" stop-color="#059669" />
      <stop offset="100%" stop-color="#10b981" />
    </linearGradient>
  </defs>
  <rect width="64" height="64" rx="14" fill="url(#bg)" />
  <g fill="#ffffff">
    <!-- Lid knob -->
    <rect x="28" y="14" width="8" height="4" rx="2" />
    <!-- Lid dome -->
    <path d="M16 23 C20 18, 44 18, 48 23 L16 23 Z" />
    <!-- Pot rim -->
    <rect x="14" y="24" width="36" height="3" rx="1.5" />
    <!-- Pot body -->
    <path d="M17 29 L19 46 C19.5 49, 22 51, 26 51 L38 51 C42 51, 44.5 49, 45 46 L47 29 Z" />
    <!-- Handles -->
    <path d="M12 28 C9 28, 9 35, 12 35" fill="none" stroke="#ffffff" stroke-width="2.5" stroke-linecap="round" />
    <path d="M52 28 C55 28, 55 35, 52 35" fill="none" stroke="#ffffff" stroke-width="2.5" stroke-linecap="round" />
    <!-- Steam swirls -->
    <path d="M26 12 C25 9, 27 8, 26 5" fill="none" stroke="#ffffff" stroke-width="1.8" stroke-linecap="round" opacity="0.85" />
    <path d="M38 12 C37 9, 39 8, 38 5" fill="none" stroke="#ffffff" stroke-width="1.8" stroke-linecap="round" opacity="0.85" />
  </g>
</svg>
